<svg id="Layer_1" xmlns="http://www.w3.org/2000/svg" width="1000" height="1000" viewBox="-51 -140 1000 1000"><style>.st0{fill:#5596E6;} .st1{fill:#264A60;} .st2{fill:#FFFFFF;} .st3{fill:#325C80;}</style><circle class="st0" cx="449" cy="360" r="500"/><path class="st1" d="M477.7 478.8c0 46.3 17.6 87.5 46.3 117.4l111.2 118.1v-78.8c43.1 0 82.5-17.6 111.2-46.3 28.7-28.7 46.3-67.5 46.3-111.2s-17.6-82.5-46.3-111.2c-28.2-28.7-67.5-46.3-111.2-46.3s-82.5 17.6-111.2 46.3c-28.7 29.4-46.3 68.2-46.3 112z"/><circle class="st2" cx="681.4" cy="439.3" r="19.3"/><circle class="st2" cx="587.8" cy="439.3" r="19.3"/><path class="st2" d="M705.3 553.1c-9.9-25.6-38.8-43.1-70.6-43.1-31.8 0-60 17.6-70.6 43.1l-18.8-7.5c13.1-33.8 49.4-56.2 89.4-56.2s76.2 22.5 89.4 56.2l-18.8 7.5z"/><g><path class="st2" d="M518.4 103.7C474.7 60.1 414 33.1 347.7 33.1S220.9 59.9 177 103.7s-70.6 104.4-70.6 170.7 26.8 126.8 70.6 170.7 104.4 70.6 170.7 70.6v120.6l170.7-182c43.7-46.3 70.6-110 70.6-180.6.6-65.6-26.9-126.1-70.6-170z"/><circle class="st3" cx="275.2" cy="214.4" r="29.9"/><circle class="st3" cx="420.3" cy="214.4" r="29.9"/><path class="st3" d="M239 291.3c15.7 40 59.3 66.3 108.7 66.3 48.7 0 92.5-26.8 108.7-66.3l28.7 11.8c-20.7 51.3-75.7 86.3-137.5 86.3S230.8 355 210.3 303.1l28.7-11.8z"/></g></svg>