<?xml version="1.0" encoding="utf-8"?>
<!-- Generator: Adobe Illustrator 21.0.0, SVG Export Plug-In . SVG Version: 6.00 Build 0)  -->
<svg version="1.1" id="Layer_1" xmlns="http://www.w3.org/2000/svg" xmlns:xlink="http://www.w3.org/1999/xlink" x="0px" y="0px"
	 viewBox="0 0 128 128" style="enable-background:new 0 0 128 128;" xml:space="preserve">
<style type="text/css">
	.st0{fill:#B895F1;}
	.st1{fill:#FFFFFF;}
</style>
<path class="st0" d="M0,64.1C-0.1,28.8,28.5,0.1,63.9,0c35.3-0.1,64.1,28.5,64.1,63.9c0.1,35.4-28.5,64.1-63.9,64.1
	C28.8,128.1,0.1,99.5,0,64.1"/>
<path class="st1" d="M46.3,61.5c0-0.8-0.7-1.5-1.5-1.5c-0.8,0-1.5,0.7-1.5,1.5c0,0.8,0.7,1.5,1.5,1.5C45.6,63,46.3,62.3,46.3,61.5
	 M62,61.5c0-0.8-0.7-1.5-1.5-1.5c-0.8,0-1.5,0.7-1.5,1.5c0,0.8,0.7,1.5,1.5,1.5C61.3,63,62,62.3,62,61.5 M78.6,35.5
	c0-0.8-0.7-1.5-1.5-1.5c-0.8,0-1.5,0.7-1.5,1.5c0,0.8,0.7,1.5,1.5,1.5C77.9,37,78.6,36.3,78.6,35.5 M90.3,35.5
	c0-0.8-0.7-1.5-1.5-1.5c-0.8,0-1.5,0.7-1.5,1.5c0,0.8,0.7,1.5,1.5,1.5C89.7,37,90.3,36.3,90.3,35.5 M92.1,25.8h-19
	c-5.6,0-10.1,4.5-10.1,10.1v12.7H39.5c-7.5,0-13.7,6.1-13.7,13.7v13.2c0,7.5,6.1,13.7,13.7,13.7h5.3l6.9,12.5
	c0.2,0.3,0.5,0.5,0.9,0.5c0.2,0,0.3,0,0.5-0.1c0.5-0.3,0.7-0.9,0.4-1.4L46,87.2h-6.5c-6.4,0-11.6-5.2-11.6-11.6V62.3
	c0-6.4,5.2-11.6,11.6-11.6h26.2c6.4,0,11.6,5.2,11.6,11.6v13.2c0,6.4-5.2,11.6-11.6,11.6H54.3c-0.6,0-1,0.5-1,1c0,0.6,0.5,1,1,1
	h11.5c7.5,0,13.7-6.1,13.7-13.7V62.3c0-2.4-0.7-4.7-1.8-6.7h5.7c0.6,0,1-0.5,1-1c0-0.6-0.4-1-1-1h-7.1c-2.5-3-6.3-4.9-10.5-4.9h-0.7
	V35.9c0-4.5,3.6-8.1,8.1-8.1h19c4.5,0,8.1,3.6,8.1,8.1v9.5c0,4.5-3.6,8.1-8.1,8.1h-1.7l-5.8,10c-0.3,0.5-0.1,1.1,0.4,1.4
	c0.2,0.1,0.3,0.1,0.5,0.1c0.4,0,0.7-0.2,0.9-0.5l5.2-8.9h0.6c5.6,0,10.1-4.5,10.1-10.1v-9.5C102.2,30.4,97.7,25.8,92.1,25.8
	 M77.1,46.4c0.6,0,1-0.5,1-1c0-2.7,2.2-4.9,4.9-4.9c2.7,0,4.9,2.2,4.9,4.8c0,0.6,0.5,1,1,1c0.6,0,1-0.5,1-1c0-3.8-3.1-6.9-6.9-6.9
	c-3.8,0-6.9,3.1-6.9,6.9C76.1,45.9,76.6,46.4,77.1,46.4 M52.7,76.4c4.9,0,8.9-4,8.9-8.9c0-0.6-0.4-1-1-1s-1,0.5-1,1
	c0,3.8-3.1,6.8-6.8,6.8c-3.8,0-6.8-3.1-6.8-6.8c0-0.6-0.5-1-1-1s-1,0.5-1,1C43.8,72.4,47.8,76.4,52.7,76.4"/>
</svg>
