<?xml version="1.0" encoding="utf-8"?>
<!-- Generator: Adobe Illustrator 19.0.0, SVG Export Plug-In . SVG Version: 6.00 Build 0)  -->
<svg version="1.1" id="Layer_1" xmlns="http://www.w3.org/2000/svg" xmlns:xlink="http://www.w3.org/1999/xlink" x="0px" y="0px"
	 viewBox="-1063 1065 32 32" style="enable-background:new -1063 1065 32 32;" xml:space="preserve">
<style type="text/css">
	.st0{fill:#5596E6;}
	.st1{fill:#FFFFFF;}
</style>
<path class="st0" d="M-1063,1081.2c0-8.6,7.1-15.6,15.9-15.6c8.8,0,15.9,7,15.9,15.6c0,8.6-7.1,15.6-15.9,15.6
	C-1055.9,1096.8-1063,1089.8-1063,1081.2"/>
<path class="st1" d="M-1051.5,1080.6c0-0.2-0.2-0.4-0.4-0.4c-0.2,0-0.4,0.2-0.4,0.4s0.2,0.4,0.4,0.4
	C-1051.7,1080.9-1051.5,1080.8-1051.5,1080.6 M-1047.6,1080.6c0-0.2-0.2-0.4-0.4-0.4c-0.2,0-0.4,0.2-0.4,0.4s0.2,0.4,0.4,0.4
	C-1047.8,1080.9-1047.6,1080.8-1047.6,1080.6 M-1043.5,1074.2c0-0.2-0.2-0.4-0.4-0.4c-0.2,0-0.4,0.2-0.4,0.4c0,0.2,0.2,0.4,0.4,0.4
	C-1043.7,1074.6-1043.5,1074.4-1043.5,1074.2 M-1040.6,1074.2c0-0.2-0.2-0.4-0.4-0.4c-0.2,0-0.4,0.2-0.4,0.4c0,0.2,0.2,0.4,0.4,0.4
	C-1040.7,1074.6-1040.6,1074.4-1040.6,1074.2"/>
<path class="st1" d="M-1040.1,1071.9h-4.7c-1.4,0-2.5,1.1-2.5,2.5v3.1h-5.8c-1.9,0-3.4,1.5-3.4,3.3v3.2c0,1.8,1.5,3.3,3.4,3.3h1.3
	l1.7,3c0,0.1,0.1,0.1,0.2,0.1c0,0,0.1,0,0.1,0c0.1-0.1,0.2-0.2,0.1-0.3l-1.9-3.3h-1.6c-1.6,0-2.9-1.3-2.9-2.8v-3.2
	c0-1.6,1.3-2.8,2.9-2.8h6.5c1.6,0,2.9,1.3,2.9,2.8v3.2c0,1.6-1.3,2.8-2.9,2.8h-2.8c-0.1,0-0.3,0.1-0.3,0.2c0,0.1,0.1,0.2,0.3,0.2
	h2.8c1.9,0,3.4-1.5,3.4-3.3v-3.2c0-0.6-0.2-1.2-0.4-1.6h1.4c0.1,0,0.2-0.1,0.2-0.2c0-0.1-0.1-0.2-0.2-0.2h-1.8
	c-0.6-0.7-1.6-1.2-2.6-1.2h-0.2v-3.1c0-1.1,0.9-2,2-2h4.7c1.1,0,2,0.9,2,2v2.3c0,1.1-0.9,2-2,2h-0.4l-1.4,2.4
	c-0.1,0.1,0,0.3,0.1,0.3c0,0,0.1,0,0.1,0c0.1,0,0.2,0,0.2-0.1l1.3-2.2h0.1c1.4,0,2.5-1.1,2.5-2.5v-2.3
	C-1037.6,1073-1038.7,1071.9-1040.1,1071.9"/>
<path class="st1" d="M-1043.9,1076.9c0.1,0,0.3-0.1,0.3-0.2c0-0.7,0.5-1.2,1.2-1.2c0.7,0,1.2,0.5,1.2,1.2c0,0.1,0.1,0.2,0.3,0.2
	c0.1,0,0.2-0.1,0.2-0.2c0-0.9-0.8-1.7-1.7-1.7c-0.9,0-1.7,0.8-1.7,1.7C-1044.1,1076.8-1044,1076.9-1043.9,1076.9 M-1049.9,1084.2
	c1.2,0,2.2-1,2.2-2.2c0-0.1-0.1-0.2-0.2-0.2s-0.3,0.1-0.3,0.2c0,0.9-0.8,1.7-1.7,1.7s-1.7-0.8-1.7-1.7c0-0.1-0.1-0.2-0.3-0.2
	c-0.1,0-0.3,0.1-0.3,0.2C-1052.1,1083.2-1051.1,1084.2-1049.9,1084.2"/>
</svg>
